<svg width="17" height="14" viewBox="0 0 17 14" fill="none" xmlns="http://www.w3.org/2000/svg">
<path d="M14.677 4.08325C15.302 3.6145 15.8645 3.052 16.302 2.39575C15.7395 2.64575 15.0833 2.83325 14.427 2.89575C15.1145 2.4895 15.6145 1.8645 15.8645 1.08325C15.2395 1.45825 14.5208 1.7395 13.802 1.89575C13.177 1.2395 12.3333 0.864502 11.3958 0.864502C9.58325 0.864502 8.1145 2.33325 8.1145 4.14575C8.1145 4.39575 8.14575 4.64575 8.20825 4.89575C5.4895 4.7395 3.052 3.427 1.427 1.45825C1.14575 1.927 0.989502 2.4895 0.989502 3.1145C0.989502 4.2395 1.552 5.2395 2.45825 5.83325C1.927 5.802 1.39575 5.677 0.958252 5.427V5.45825C0.958252 7.052 2.08325 8.3645 3.58325 8.677C3.33325 8.7395 3.02075 8.802 2.7395 8.802C2.52075 8.802 2.33325 8.77075 2.1145 8.7395C2.52075 10.052 3.7395 10.9895 5.177 11.0208C4.052 11.8958 2.64575 12.427 1.1145 12.427C0.833252 12.427 0.583252 12.3958 0.333252 12.3645C1.77075 13.302 3.4895 13.8333 5.3645 13.8333C11.3958 13.8333 14.677 8.8645 14.677 4.52075C14.677 4.3645 14.677 4.2395 14.677 4.08325Z" fill="#5A7184"/>
</svg>
