<svg width="15" height="15" viewBox="0 0 15 15" fill="none" xmlns="http://www.w3.org/2000/svg">
<path d="M13.3333 0.333252H1.302C0.770752 0.333252 0.333252 0.802002 0.333252 1.3645V13.3333C0.333252 13.8958 0.770752 14.3333 1.302 14.3333H13.3333C13.8645 14.3333 14.3333 13.8958 14.3333 13.3333V1.3645C14.3333 0.802002 13.8645 0.333252 13.3333 0.333252ZM4.552 12.3333H2.4895V5.677H4.552V12.3333ZM3.52075 4.7395C2.83325 4.7395 2.302 4.20825 2.302 3.552C2.302 2.89575 2.83325 2.33325 3.52075 2.33325C4.177 2.33325 4.70825 2.89575 4.70825 3.552C4.70825 4.20825 4.177 4.7395 3.52075 4.7395ZM12.3333 12.3333H10.2395V9.08325C10.2395 8.33325 10.2395 7.33325 9.177 7.33325C8.08325 7.33325 7.927 8.177 7.927 9.052V12.3333H5.8645V5.677H7.83325V6.58325H7.8645C8.14575 6.052 8.83325 5.4895 9.83325 5.4895C11.927 5.4895 12.3333 6.89575 12.3333 8.677V12.3333Z" fill="#5A7184"/>
</svg>
