<svg width="15" height="15" viewBox="0 0 15 15" fill="none" xmlns="http://www.w3.org/2000/svg">
<path d="M7.33325 3.7395C5.33325 3.7395 3.7395 5.3645 3.7395 7.33325C3.7395 9.33325 5.33325 10.927 7.33325 10.927C9.302 10.927 10.927 9.33325 10.927 7.33325C10.927 5.3645 9.302 3.7395 7.33325 3.7395ZM7.33325 9.677C6.052 9.677 4.9895 8.64575 4.9895 7.33325C4.9895 6.052 6.02075 5.02075 7.33325 5.02075C8.6145 5.02075 9.64575 6.052 9.64575 7.33325C9.64575 8.64575 8.6145 9.677 7.33325 9.677ZM11.8958 3.6145C11.8958 3.14575 11.5208 2.77075 11.052 2.77075C10.5833 2.77075 10.2083 3.14575 10.2083 3.6145C10.2083 4.08325 10.5833 4.45825 11.052 4.45825C11.5208 4.45825 11.8958 4.08325 11.8958 3.6145ZM14.2708 4.45825C14.2083 3.33325 13.9583 2.33325 13.1458 1.52075C12.3333 0.708252 11.3333 0.458252 10.2083 0.395752C9.052 0.333252 5.58325 0.333252 4.427 0.395752C3.302 0.458252 2.33325 0.708252 1.4895 1.52075C0.677002 2.33325 0.427002 3.33325 0.364502 4.45825C0.302002 5.6145 0.302002 9.08325 0.364502 10.2395C0.427002 11.3645 0.677002 12.3333 1.4895 13.177C2.33325 13.9895 3.302 14.2395 4.427 14.302C5.58325 14.3645 9.052 14.3645 10.2083 14.302C11.3333 14.2395 12.3333 13.9895 13.1458 13.177C13.9583 12.3333 14.2083 11.3645 14.2708 10.2395C14.3333 9.08325 14.3333 5.6145 14.2708 4.45825ZM12.7708 11.4583C12.552 12.0833 12.052 12.552 11.4583 12.802C10.5208 13.177 8.33325 13.0833 7.33325 13.0833C6.302 13.0833 4.1145 13.177 3.20825 12.802C2.58325 12.552 2.1145 12.0833 1.8645 11.4583C1.4895 10.552 1.58325 8.3645 1.58325 7.33325C1.58325 6.33325 1.4895 4.14575 1.8645 3.20825C2.1145 2.6145 2.58325 2.14575 3.20825 1.89575C4.1145 1.52075 6.302 1.6145 7.33325 1.6145C8.33325 1.6145 10.5208 1.52075 11.4583 1.89575C12.052 2.1145 12.5208 2.6145 12.7708 3.20825C13.1458 4.14575 13.052 6.33325 13.052 7.33325C13.052 8.3645 13.1458 10.552 12.7708 11.4583Z" fill="#5A7184"/>
</svg>
