<svg width="336" height="40" viewBox="0 0 336 40" fill="none" xmlns="http://www.w3.org/2000/svg">
<path d="M58.4353 25.2852C58.4353 24.2891 58.0837 23.5273 57.3806 23C56.6775 22.4609 55.4118 21.8984 53.5837 21.3125C51.7556 20.7148 50.3083 20.1289 49.2419 19.5547C46.3357 17.9844 44.8826 15.8691 44.8826 13.209C44.8826 11.8262 45.2693 10.5957 46.0427 9.51758C46.8279 8.42773 47.947 7.57813 49.4001 6.96875C50.865 6.35937 52.5056 6.05469 54.322 6.05469C56.1501 6.05469 57.779 6.38867 59.2087 7.05664C60.6384 7.71289 61.7458 8.64453 62.531 9.85156C63.3279 11.0586 63.7263 12.4297 63.7263 13.9648H58.4529C58.4529 12.793 58.0837 11.8848 57.3454 11.2402C56.6072 10.584 55.5701 10.2559 54.2341 10.2559C52.9451 10.2559 51.9431 10.5313 51.2283 11.082C50.5134 11.6211 50.156 12.3359 50.156 13.2266C50.156 14.0586 50.572 14.7559 51.404 15.3184C52.2478 15.8809 53.4841 16.4082 55.113 16.9004C58.113 17.8027 60.2986 18.9219 61.6697 20.2578C63.0408 21.5938 63.7263 23.2578 63.7263 25.25C63.7263 27.4648 62.8884 29.2051 61.2126 30.4707C59.5368 31.7246 57.281 32.3516 54.4451 32.3516C52.4763 32.3516 50.6833 31.9941 49.0661 31.2793C47.449 30.5527 46.2126 29.5625 45.3572 28.3086C44.5134 27.0547 44.0915 25.6016 44.0915 23.9492H49.3826C49.3826 26.7734 51.0701 28.1855 54.4451 28.1855C55.699 28.1855 56.6775 27.9336 57.3806 27.4297C58.0837 26.9141 58.4353 26.1992 58.4353 25.2852ZM84.3493 22.666C84.3493 25.5957 83.6814 27.9453 82.3454 29.7148C81.0212 31.4727 79.2283 32.3516 76.9665 32.3516C75.0447 32.3516 73.4919 31.6836 72.3083 30.3477V39.3125H67.2283V12.9805H71.9392L72.115 14.8438C73.3454 13.3672 74.9509 12.6289 76.9314 12.6289C79.2751 12.6289 81.0974 13.4961 82.3982 15.2305C83.699 16.9648 84.3493 19.3555 84.3493 22.4023V22.666ZM79.2693 22.2969C79.2693 20.5273 78.9529 19.1621 78.3201 18.2012C77.699 17.2402 76.7908 16.7598 75.5954 16.7598C74.0017 16.7598 72.906 17.3691 72.3083 18.5879V26.375C72.9294 27.6289 74.0368 28.2559 75.6306 28.2559C78.0564 28.2559 79.2693 26.2695 79.2693 22.2969ZM98.4509 17.7441C97.7595 17.6504 97.1501 17.6035 96.6228 17.6035C94.7009 17.6035 93.4411 18.2539 92.8435 19.5547V32H87.7634V12.9805H92.5622L92.7029 15.248C93.7224 13.502 95.1345 12.6289 96.9392 12.6289C97.5017 12.6289 98.029 12.7051 98.5212 12.8574L98.4509 17.7441ZM106.523 32H101.426V12.9805H106.523V32ZM101.127 8.05859C101.127 7.29688 101.379 6.66992 101.883 6.17773C102.398 5.68555 103.095 5.43945 103.974 5.43945C104.842 5.43945 105.533 5.68555 106.049 6.17773C106.564 6.66992 106.822 7.29688 106.822 8.05859C106.822 8.83203 106.558 9.46484 106.031 9.95703C105.515 10.4492 104.83 10.6953 103.974 10.6953C103.119 10.6953 102.427 10.4492 101.9 9.95703C101.385 9.46484 101.127 8.83203 101.127 8.05859ZM115.65 12.9805L115.808 15.1777C117.168 13.4785 118.99 12.6289 121.275 12.6289C123.291 12.6289 124.791 13.2207 125.775 14.4043C126.76 15.5879 127.263 17.3574 127.287 19.7129V32H122.207V19.8359C122.207 18.7578 121.972 17.9785 121.504 17.498C121.035 17.0059 120.256 16.7598 119.166 16.7598C117.736 16.7598 116.664 17.3691 115.949 18.5879V32H110.869V12.9805H115.65ZM137.486 8.30469V12.9805H140.738V16.707H137.486V26.1992C137.486 26.9023 137.621 27.4062 137.89 27.7109C138.16 28.0156 138.676 28.168 139.437 28.168C140 28.168 140.498 28.127 140.931 28.0449V31.8945C139.935 32.1992 138.91 32.3516 137.855 32.3516C134.293 32.3516 132.476 30.5527 132.406 26.9551V16.707H129.629V12.9805H132.406V8.30469H137.486ZM151.728 28.2559C152.666 28.2559 153.427 27.998 154.013 27.4824C154.599 26.9668 154.904 26.2812 154.927 25.4258H159.691C159.679 26.7148 159.328 27.8984 158.636 28.9766C157.945 30.043 156.996 30.875 155.789 31.4727C154.593 32.0586 153.269 32.3516 151.816 32.3516C149.097 32.3516 146.953 31.4902 145.383 29.7676C143.812 28.0332 143.027 25.6426 143.027 22.5957V22.2617C143.027 19.332 143.806 16.9941 145.365 15.248C146.924 13.502 149.062 12.6289 151.781 12.6289C154.16 12.6289 156.064 13.3086 157.494 14.668C158.935 16.0156 159.668 17.8145 159.691 20.0645H154.927C154.904 19.0801 154.599 18.2832 154.013 17.6738C153.427 17.0527 152.654 16.7422 151.693 16.7422C150.51 16.7422 149.613 17.1758 149.004 18.043C148.406 18.8984 148.107 20.293 148.107 22.2266V22.7539C148.107 24.7109 148.406 26.1172 149.004 26.9727C149.601 27.8281 150.51 28.2559 151.728 28.2559ZM167.799 15.0547C169.146 13.4375 170.84 12.6289 172.879 12.6289C177.004 12.6289 179.095 15.0254 179.154 19.8184V32H174.074V19.959C174.074 18.8691 173.84 18.0664 173.371 17.5508C172.902 17.0234 172.123 16.7598 171.033 16.7598C169.545 16.7598 168.467 17.334 167.799 18.4824V32H162.718V5H167.799V15.0547ZM191.99 32.3516C189.201 32.3516 186.927 31.4961 185.17 29.7852C183.424 28.0742 182.551 25.7949 182.551 22.9473V22.4551C182.551 20.5449 182.92 18.8398 183.658 17.3398C184.396 15.8281 185.439 14.668 186.787 13.8594C188.146 13.0391 189.693 12.6289 191.427 12.6289C194.029 12.6289 196.074 13.4492 197.562 15.0898C199.062 16.7305 199.812 19.0566 199.812 22.0684V24.1426H187.701C187.865 25.3848 188.357 26.3809 189.177 27.1309C190.01 27.8809 191.058 28.2559 192.324 28.2559C194.281 28.2559 195.81 27.5469 196.912 26.1289L199.408 28.9238C198.646 30.002 197.615 30.8457 196.314 31.4551C195.013 32.0527 193.572 32.3516 191.99 32.3516ZM191.41 16.7422C190.402 16.7422 189.582 17.082 188.949 17.7617C188.328 18.4414 187.929 19.4141 187.754 20.6797H194.82V20.2754C194.797 19.1504 194.492 18.2832 193.906 17.6738C193.32 17.0527 192.488 16.7422 191.41 16.7422ZM210.873 28.2559C211.81 28.2559 212.572 27.998 213.158 27.4824C213.744 26.9668 214.049 26.2812 214.072 25.4258H218.836C218.824 26.7148 218.472 27.8984 217.781 28.9766C217.09 30.043 216.14 30.875 214.933 31.4727C213.738 32.0586 212.414 32.3516 210.961 32.3516C208.242 32.3516 206.097 31.4902 204.527 29.7676C202.957 28.0332 202.172 25.6426 202.172 22.5957V22.2617C202.172 19.332 202.951 16.9941 204.51 15.248C206.068 13.502 208.207 12.6289 210.926 12.6289C213.304 12.6289 215.209 13.3086 216.638 14.668C218.08 16.0156 218.812 17.8145 218.836 20.0645H214.072C214.049 19.0801 213.744 18.2832 213.158 17.6738C212.572 17.0527 211.799 16.7422 210.838 16.7422C209.654 16.7422 208.758 17.1758 208.148 18.043C207.551 18.8984 207.252 20.293 207.252 22.2266V22.7539C207.252 24.7109 207.551 26.1172 208.148 26.9727C208.746 27.8281 209.654 28.2559 210.873 28.2559ZM228.894 24.3711L227.066 26.1992V32H221.986V5H227.066V19.959L228.051 18.6934L232.92 12.9805H239.019L232.146 20.9082L239.617 32H233.781L228.894 24.3711ZM240.676 22.3145C240.676 20.4277 241.039 18.7461 241.765 17.2695C242.492 15.793 243.535 14.6504 244.894 13.8418C246.265 13.0332 247.853 12.6289 249.658 12.6289C252.224 12.6289 254.316 13.4141 255.933 14.9844C257.562 16.5547 258.47 18.6875 258.658 21.3828L258.693 22.6836C258.693 25.6016 257.879 27.9453 256.25 29.7148C254.621 31.4727 252.435 32.3516 249.693 32.3516C246.951 32.3516 244.76 31.4727 243.119 29.7148C241.49 27.957 240.676 25.5664 240.676 22.543V22.3145ZM245.756 22.6836C245.756 24.4883 246.095 25.8711 246.775 26.832C247.455 27.7812 248.427 28.2559 249.693 28.2559C250.924 28.2559 251.885 27.7871 252.576 26.8496C253.267 25.9004 253.613 24.3887 253.613 22.3145C253.613 20.5449 253.267 19.1738 252.576 18.2012C251.885 17.2285 250.912 16.7422 249.658 16.7422C248.416 16.7422 247.455 17.2285 246.775 18.2012C246.095 19.1621 245.756 20.6562 245.756 22.6836ZM273.463 30.0664C272.209 31.5898 270.474 32.3516 268.26 32.3516C266.22 32.3516 264.662 31.7656 263.584 30.5938C262.517 29.4219 261.972 27.7051 261.949 25.4434V12.9805H267.029V25.2676C267.029 27.248 267.931 28.2383 269.736 28.2383C271.459 28.2383 272.642 27.6406 273.287 26.4453V12.9805H278.385V32H273.603L273.463 30.0664ZM288.549 8.30469V12.9805H291.801V16.707H288.549V26.1992C288.549 26.9023 288.683 27.4062 288.953 27.7109C289.222 28.0156 289.738 28.168 290.5 28.168C291.062 28.168 291.56 28.127 291.994 28.0449V31.8945C290.998 32.1992 289.972 32.3516 288.918 32.3516C285.355 32.3516 283.539 30.5527 283.469 26.9551V16.707H280.691V12.9805H283.469V8.30469H288.549Z" fill="#183B56"/>
<path fill-rule="evenodd" clip-rule="evenodd" d="M304.141 18C306.902 18 309.141 15.7614 309.141 13C309.141 10.2386 306.902 8 304.141 8C301.379 8 299.141 10.2386 299.141 13C299.141 15.7614 301.379 18 304.141 18Z" fill="#1576D8"/>
</svg>
