<svg width="36" height="36" viewBox="0 0 36 36" fill="none" xmlns="http://www.w3.org/2000/svg">
<g id="Icon">
<path id="Oval" opacity="0.15" fill-rule="evenodd" clip-rule="evenodd" d="M17.7424 36C27.5413 36 35.4849 27.9411 35.4849 18C35.4849 8.05887 27.5413 0 17.7424 0C7.94356 0 0 8.05887 0 18C0 27.9411 7.94356 36 17.7424 36Z" fill="#36B37E"/>
<path id="Icon_2" d="M15.3746 23.7363L10.552 18.873C10.4172 18.7363 10.3499 18.5605 10.3499 18.3457C10.3499 18.1308 10.4172 17.9551 10.552 17.8183L11.6205 16.7637C11.7552 16.6074 11.9237 16.5293 12.1258 16.5293C12.328 16.5293 12.506 16.6074 12.6601 16.7637L15.8944 20.0449L22.825 13.0137C22.979 12.8574 23.1571 12.7793 23.3592 12.7793C23.5614 12.7793 23.7298 12.8574 23.8646 13.0137L24.933 14.0684C25.0678 14.2051 25.1352 14.3809 25.1352 14.5957C25.1352 14.8105 25.0678 14.9863 24.933 15.123L16.4142 23.7363C16.2794 23.8926 16.1061 23.9707 15.8944 23.9707C15.6826 23.9707 15.5093 23.8926 15.3746 23.7363Z" fill="#36B37E"/>
</g>
</svg>
